<?xml version="1.0" encoding="iso-8859-1"?>
<!DOCTYPE svg PUBLIC "-//W3C//DTD SVG 1.1//EN" "http://www.w3.org/Graphics/SVG/1.1/DTD/svg11.dtd">
<svg 
 version="1.1" xmlns="http://www.w3.org/2000/svg" xmlns:xlink="http://www.w3.org/1999/xlink" x="0px" y="0px" width="512px"
	 height="512px" viewBox="0 0 512 512" style="enable-background:new 0 0 512 512;" xml:space="preserve"
><g fill="#ffffff" id="afcae5a789ccd549f9c6e2a2f8189d46"><g fill="#ffffff"></g><path style="display: inline;" d="M381.089,106.958c-26.291,0-52.123,2.083-76.991,5.838c-2.94-1.78-6.438-3.202-10.496-4.154
		l-90.864-21.321c-21.716-5.098-35.671,1.971-31.006,15.711l12.717,37.464c0.508,1.501,1.064,3.135,1.639,4.819
		c-29.925,12.459-55.758,27.064-75.827,42.496l-67.809-65.43C19.38,100.113,0.5,104.289,0.5,131.644v74.612
		c0,27.363,0,72.125,0,99.488v74.612c0,27.355,18.88,31.53,41.951,9.262l68.399-65.996c20.028,15.407,45.71,30.032,75.411,42.542
		c-0.641,1.884-1.248,3.676-1.813,5.339l-12.717,37.465c-4.666,13.739,9.29,20.809,31.006,15.711l90.864-21.321
		c4.117-0.965,7.651-2.42,10.616-4.237c24.831,3.805,50.622,5.922,76.871,5.922c72.025,0,130.411-66.736,130.411-149.042
		S453.114,106.958,381.089,106.958z M286.074,360.15c-3.073,3.077-8.067,3.077-11.141,0
		c-53.633-53.633-53.633-140.899,0.004-194.536c3.069-3.073,8.06-3.073,11.137,0.004c3.069,3.073,3.073,8.063,0,11.136
		c-47.49,47.486-47.49,124.769,0,172.255C289.151,352.087,289.151,357.073,286.074,360.15z M349.949,360.15
		c-3.073,3.077-8.067,3.077-11.141,0c-53.633-53.633-53.633-140.899,0.004-194.536c3.069-3.073,8.06-3.073,11.137,0.004
		c3.069,3.073,3.073,8.063,0,11.136c-47.49,47.486-47.49,124.769,0,172.255C353.026,352.087,353.026,357.073,349.949,360.15z
		 M436.979,277.292c-17.641,0-31.938-14.298-31.938-31.938s14.297-31.938,31.938-31.938c17.64,0,31.938,14.297,31.938,31.938
		S454.619,277.292,436.979,277.292z"></path></g></svg>