<?xml version="1.0" encoding="iso-8859-1"?>
<!DOCTYPE svg PUBLIC "-//W3C//DTD SVG 1.1//EN" "http://www.w3.org/Graphics/SVG/1.1/DTD/svg11.dtd">
<svg 
 version="1.1" xmlns="http://www.w3.org/2000/svg" xmlns:xlink="http://www.w3.org/1999/xlink" x="0px" y="0px" width="512px"
	 height="512px" viewBox="0 0 512 512" enable-background="new 0 0 512 512" xml:space="preserve"
><g fill="#ffffff" id="1b1c9b208ed950244c86edd4d2014124"><g fill="#ffffff"></g><path display="inline" d="M277.292,235.772h85.166v42.582h-85.166v85.166h-42.583v-85.166h-85.167v-42.582h85.167v-87.296h42.583
		V235.772z M511.5,190.361c0,94.036-69.123,153.717-149.162,222.829c-20.727,17.895-42.159,36.395-63.713,56.576
		c-6.159,5.902-21.907,18.66-42.87,18.66c-20.986,0-36.364-12.639-42.899-19.158c-21.342-19.961-42.573-38.301-63.112-56.045
		C69.661,344.049,0.5,284.305,0.5,190.361c0-90.406,68.252-166.786,149.042-166.786c48.137,0,82.75,13.501,106.457,30.784
		c23.701-17.283,58.309-30.784,106.439-30.784C443.237,23.575,511.5,99.955,511.5,190.361z M468.917,190.361
		c0-70.749-53.229-124.203-106.479-124.203C273.74,66.158,256,119.387,256,119.387s-17.74-53.229-106.458-53.229
		c-53.229,0-106.458,52.749-106.458,124.203c0,95.233,97.854,153.19,199.497,248.403c0,0,6.77,7.078,13.174,7.078
		c6.408,0,13.536-6.943,13.536-6.943C371.129,343.506,468.917,285.756,468.917,190.361z"></path></g></svg>