<?xml version="1.0" encoding="iso-8859-1"?>
<!DOCTYPE svg PUBLIC "-//W3C//DTD SVG 1.1//EN" "http://www.w3.org/Graphics/SVG/1.1/DTD/svg11.dtd">
<svg 
 version="1.1" xmlns="http://www.w3.org/2000/svg" xmlns:xlink="http://www.w3.org/1999/xlink" x="0px" y="0px" width="512px"
	 height="512px" viewBox="0 0 512 512" style="enable-background:new 0 0 512 512;" xml:space="preserve"
><g id="afcae5a789ccd549f9c6e2a2f809bb41"><g></g><g fill="#ffffff"><path style="display: inline;" d="M225.322,446.09c-3.789,7.998-11.748,12.679-20.049,12.679c-3.166,0-6.383-0.68-9.436-2.117
		c-3.737-1.771-7.409-3.638-11.029-5.612c0,0-0.009,0-0.009-0.005c-0.143-0.073-0.286-0.151-0.424-0.229
		c-0.009-0.004-0.018-0.008-0.021-0.013c-0.091-0.048-0.187-0.1-0.273-0.151c-0.009,0-0.018-0.009-0.026-0.013
		c-0.035-0.022-0.083-0.044-0.122-0.065c-0.004,0-0.008-0.009-0.017-0.009c-0.052-0.025-0.087-0.052-0.139-0.078
		c-0.004,0-0.009-0.004-0.009-0.008c-0.039-0.018-0.086-0.044-0.125-0.065c-0.013-0.004-0.021-0.013-0.03-0.018
		c-0.035-0.021-0.086-0.047-0.121-0.064c-0.004-0.005-0.009-0.009-0.013-0.009c-0.043-0.026-0.091-0.052-0.134-0.073
		c-0.009-0.005-0.021-0.014-0.03-0.018c-0.039-0.021-0.065-0.039-0.1-0.057c-0.017-0.009-0.026-0.018-0.043-0.021
		c-0.043-0.021-0.086-0.048-0.125-0.073c-0.004,0-0.013-0.005-0.017-0.009c-0.035-0.018-0.078-0.044-0.113-0.061
		c-0.013-0.009-0.03-0.018-0.043-0.026c-0.039-0.018-0.061-0.034-0.096-0.052c-0.013-0.009-0.026-0.018-0.039-0.021
		c-0.035-0.021-0.087-0.048-0.122-0.069c-0.017-0.009-0.035-0.018-0.047-0.026c-0.022-0.013-0.061-0.03-0.083-0.048
		c-0.017-0.009-0.035-0.017-0.052-0.025c-0.035-0.021-0.061-0.035-0.095-0.052c-0.013-0.009-0.026-0.018-0.035-0.022
		c-0.043-0.021-0.078-0.043-0.122-0.064c-0.017-0.013-0.035-0.021-0.052-0.035c-0.026-0.009-0.052-0.025-0.078-0.043
		c-0.017-0.009-0.035-0.018-0.052-0.026c-0.035-0.021-0.083-0.047-0.117-0.069c-0.017-0.008-0.03-0.017-0.047-0.025
		c-0.026-0.013-0.056-0.03-0.083-0.044c-0.021-0.013-0.039-0.025-0.061-0.034c-0.021-0.018-0.047-0.026-0.074-0.043
		c-0.017-0.009-0.034-0.018-0.052-0.03c-0.035-0.021-0.078-0.044-0.113-0.065c-0.021-0.009-0.043-0.021-0.065-0.034
		c-0.026-0.014-0.039-0.021-0.065-0.035c-0.017-0.013-0.043-0.025-0.061-0.039c-0.021-0.009-0.052-0.025-0.069-0.039
		c-0.035-0.017-0.069-0.039-0.108-0.061c-0.018-0.009-0.039-0.021-0.061-0.034c-0.022-0.013-0.048-0.026-0.074-0.039
		c-0.018-0.013-0.03-0.018-0.048-0.03c-0.026-0.013-0.052-0.026-0.078-0.043c-0.004-0.005-0.004,0-0.013-0.005
		c-0.056-0.034-0.113-0.069-0.173-0.1c-0.013-0.009-0.021-0.018-0.035-0.021c-0.026-0.018-0.056-0.03-0.086-0.048
		c-0.009-0.009-0.018-0.013-0.03-0.018c-0.095-0.056-0.187-0.112-0.282-0.164c-0.008-0.004-0.017-0.009-0.021-0.013
		c-0.1-0.057-0.199-0.117-0.299-0.169c-0.009-0.009,0-0.005-0.009-0.009c-0.035-0.018-0.065-0.035-0.1-0.057
		c-0.004-0.004-0.004-0.004-0.008-0.004c-0.1-0.061-0.199-0.117-0.299-0.174c-0.009-0.004-0.009-0.009-0.018-0.009
		c-0.134-0.077-0.272-0.16-0.407-0.242h-0.009c-0.139-0.082-0.277-0.164-0.416-0.242c-3.343-1.962-6.629-4.01-9.855-6.137
		c-10.224-6.737-13.052-20.491-6.31-30.715c4.261-6.461,11.328-9.969,18.53-9.969c4.191,0,8.427,1.183,12.186,3.664
		c6.894,4.542,14.165,8.635,21.608,12.168C225.851,421.801,230.57,435.025,225.322,446.09z M453.575,185.947
		c3.615,8.38,11.787,13.39,20.365,13.39c2.932,0,5.915-0.584,8.777-1.82c11.221-4.844,16.404-17.853,11.597-29.081
		c-4.131-9.574-8.92-18.809-14.307-27.63c-4.179-6.831-11.467-10.599-18.929-10.599c-3.936,0-7.92,1.049-11.531,3.248
		c-10.449,6.379-13.753,20.023-7.37,30.478C446.474,170.978,450.31,178.387,453.575,185.947z M329.943,429.669
		c-1.438,0-2.896,0.143-4.36,0.433c-8.067,1.611-16.352,2.668-24.618,3.14c-12.225,0.701-21.569,11.177-20.868,23.401
		c0.671,11.796,10.449,20.907,22.115,20.907c0.425,0,0.857-0.014,1.286-0.039c0.078-0.005,0.156-0.009,0.233-0.014
		c0.009,0,0.009,0,0.014,0c3.352-0.194,6.677-0.468,9.985-0.805l0.009-0.005c0.117-0.013,0.234-0.021,0.351-0.034
		c0.005-0.005,0.009-0.005,0.014-0.005c0.038,0,0.077-0.009,0.112-0.009h0.009c0.069-0.009,0.143-0.017,0.216-0.025
		c0.014,0,0.018,0,0.03,0c0.035-0.009,0.069-0.009,0.104-0.014c0.009,0,0.018-0.004,0.021-0.004
		c0.069-0.009,0.139-0.013,0.208-0.021c0.004,0,0.018,0,0.026-0.005c0.03,0,0.064-0.004,0.095-0.008c0.021,0,0.026,0,0.052-0.005
		c0.052-0.004,0.104-0.013,0.156-0.018c0.021-0.004,0.034-0.004,0.057-0.004c0.03-0.005,0.056-0.009,0.086-0.013
		c0.014,0,0.048-0.005,0.061-0.005c0.03-0.004,0.057-0.009,0.087-0.009c0.03-0.004,0.048-0.009,0.073-0.009
		c0.044-0.008,0.087-0.008,0.13-0.017c0.022,0,0.048-0.005,0.069-0.009c0.026,0,0.053-0.005,0.083-0.009
		c0.021,0,0.056-0.004,0.077-0.009c0.039-0.004,0.078-0.009,0.117-0.013c0.021-0.005,0.061-0.005,0.078-0.009
		c0.026-0.005,0.052-0.005,0.078-0.009c0.025-0.004,0.061-0.004,0.086-0.009c0.026-0.004,0.057-0.004,0.083-0.013
		c0.039,0,0.078-0.009,0.116-0.009c0.018-0.004,0.039-0.009,0.061-0.009c0.031-0.004,0.069-0.009,0.1-0.013
		c0.018,0,0.035-0.005,0.053-0.005c0.043-0.008,0.1-0.013,0.143-0.017c0.018,0,0.035-0.005,0.052-0.009
		c0.035,0,0.074-0.009,0.108-0.009c0.018-0.005,0.03-0.005,0.048-0.009c0.052-0.004,0.1-0.009,0.151-0.018c0.009,0,0.013,0,0.021,0
		c0.044-0.009,0.091-0.013,0.135-0.017c0.013,0,0.025-0.005,0.039-0.005c0.052-0.004,0.104-0.013,0.155-0.021
		c0.005,0,0.009,0,0.009,0c0.052-0.004,0.104-0.013,0.156-0.018c0.009,0,0.018,0,0.025-0.004c0.108-0.014,0.217-0.026,0.325-0.039
		c0.004,0,0.013,0,0.018,0c0.056-0.009,0.1-0.018,0.16-0.021c0,0,0,0,0.004,0c0.117-0.014,0.229-0.03,0.343-0.044h0.004
		c0.117-0.013,0.229-0.03,0.342-0.043c0.005-0.004,0.005-0.004,0.009-0.004c5.205-0.658,10.362-1.503,15.451-2.521
		c11.969-2.425,19.729-14.082,17.338-26.068C349.56,436.961,340.302,429.669,329.943,429.669z M491.357,252.635
		c-0.688-0.064-1.377-0.095-2.058-0.095c-11.328,0-20.993,8.639-22.05,20.141c-0.762,8.231-2.104,16.468-3.997,24.475
		c-2.814,11.918,4.561,23.86,16.478,26.676c1.715,0.406,3.43,0.602,5.118,0.602c10.029,0,19.114-6.847,21.544-17.014
		c1.676-7.085,3.014-14.299,3.992-21.626c0,0,0-0.005,0-0.009c0.402-3.014,0.74-6.036,1.026-9.085
		C512.502,264.522,503.538,253.755,491.357,252.635z M409.635,94.445c6.136-10.597,2.516-24.161-8.08-30.295
		c-4.313-2.499-8.722-4.854-13.212-7.063c-0.009-0.004-0.014-0.006-0.021-0.011c-0.03-0.015-0.065-0.032-0.1-0.047
		c-0.005-0.005,0,0-0.005-0.005c-0.069-0.034-0.143-0.069-0.212-0.104c-0.035-0.016-0.061-0.03-0.096-0.046
		c-0.008-0.006-0.021-0.011-0.034-0.018c-0.096-0.045-0.19-0.093-0.281-0.136c-0.014-0.009-0.026-0.014-0.039-0.02
		c-0.026-0.014-0.052-0.028-0.083-0.041c-0.013-0.005-0.03-0.016-0.047-0.021c-0.048-0.024-0.096-0.048-0.147-0.074
		c-0.018-0.009-0.021-0.009-0.043-0.02c-0.026-0.011-0.053-0.023-0.074-0.037c-0.021-0.008-0.039-0.017-0.056-0.025
		c-0.026-0.013-0.048-0.024-0.074-0.035c-0.021-0.013-0.039-0.021-0.064-0.032c-0.039-0.02-0.078-0.039-0.117-0.059
		c-0.021-0.009-0.039-0.017-0.061-0.028c-0.021-0.011-0.048-0.023-0.074-0.034c-0.017-0.009-0.043-0.021-0.061-0.03
		c-0.025-0.011-0.043-0.02-0.064-0.03c-0.039-0.02-0.082-0.039-0.117-0.059c-0.021-0.009-0.039-0.018-0.061-0.026
		c-0.025-0.013-0.052-0.025-0.078-0.038c-0.017-0.009-0.039-0.018-0.056-0.026c-0.039-0.018-0.074-0.037-0.113-0.057
		c-0.013-0.004-0.021-0.009-0.03-0.013c-0.034-0.018-0.078-0.039-0.116-0.057c-0.018-0.006-0.03-0.013-0.048-0.021
		c-0.035-0.018-0.061-0.03-0.1-0.048c-0.014-0.004-0.021-0.011-0.035-0.017c-0.047-0.022-0.091-0.044-0.139-0.065
		c0,0-0.013-0.007-0.017-0.009c-0.039-0.017-0.083-0.039-0.117-0.056c-0.013-0.007-0.026-0.011-0.039-0.018
		c-0.095-0.046-0.187-0.087-0.281-0.132c-0.005-0.005-0.009-0.007-0.018-0.009c-0.043-0.021-0.087-0.041-0.13-0.063
		c-0.009-0.002-0.009-0.004-0.013-0.006c-0.1-0.048-0.195-0.091-0.299-0.139c0-0.002-0.005-0.002-0.009-0.005
		c-3.663-1.723-7.379-3.343-11.15-4.867c-2.707-1.082-5.495-1.596-8.236-1.596c-8.77,0-17.075,5.238-20.565,13.866
		c-4.59,11.354,0.893,24.275,12.246,28.866c7.635,3.087,15.126,6.749,22.267,10.884c3.499,2.024,7.318,2.986,11.091,2.986
		C398.077,105.512,405.525,101.545,409.635,94.445z M453.791,373.18c-4.239-3.819-9.544-5.699-14.831-5.699
		c-6.063,0-12.104,2.473-16.481,7.336c-5.529,6.141-11.545,11.947-17.871,17.261c-9.38,7.872-10.601,21.859-2.724,31.239
		c4.387,5.222,10.665,7.916,16.987,7.916c5.015,0,10.056-1.693,14.204-5.153c7.95-6.678,15.429-13.9,22.37-21.608
		C463.621,395.368,462.885,381.363,453.791,373.18z M113.261,256.164c0-97.803,79.566-177.371,177.372-177.371V34.45
		c-122.45,0-221.714,99.265-221.714,221.714H0.499l89.638,110.857l89.638-110.857H113.261z"></path></g></g></svg>