<?xml version="1.0" encoding="iso-8859-1"?>
<!DOCTYPE svg PUBLIC "-//W3C//DTD SVG 1.1//EN" "http://www.w3.org/Graphics/SVG/1.1/DTD/svg11.dtd">
<svg 
 version="1.1" xmlns="http://www.w3.org/2000/svg" xmlns:xlink="http://www.w3.org/1999/xlink" x="0px" y="0px" width="512px"
	 height="512px" viewBox="0 0 512 512" enable-background="new 0 0 512 512" xml:space="preserve"
><g fill="#ffffff" id="5151e0c8492e5103c096af88a506584a"><g fill="#ffffff"></g><path display="inline" d="M464.186,70.382C464.186,31.789,370.979,0.5,256,0.5S47.814,31.789,47.814,70.382v372.072h0.063
		C49.212,480.66,141.853,511.5,256,511.5s206.788-30.84,208.122-69.046h0.063V72.095l-0.134,0.061
		C464.097,71.564,464.186,70.977,464.186,70.382z M429.49,442.454c-2.284,4.117-3.814,15.71-38.621,26.606
		c-36.41,11.407-84.309,17.691-134.869,17.691c-50.559,0-98.458-6.284-134.87-17.691c-34.806-10.896-36.34-22.489-38.618-26.606
		V285.753c37.273,18.852,101.026,31.291,173.488,31.291s136.215-12.439,173.49-31.291V442.454z M429.49,247.994
		c-2.284,4.122-3.814,15.709-38.621,26.611c-36.41,11.407-84.309,17.691-134.869,17.691c-50.559,0-98.458-6.284-134.87-17.691
		c-34.806-10.901-36.34-22.489-38.618-26.611V109.002c37.292,18.839,101.06,31.261,173.488,31.261s136.192-12.422,173.49-31.261
		V247.994z M390.869,97.824c-36.41,11.407-84.309,17.689-134.869,17.689c-50.559,0-98.458-6.282-134.87-17.689
		c-37.5-11.746-47.985-24.3-48.99-27.442c1.005-3.142,11.494-15.697,48.994-27.444C157.546,31.53,205.443,25.25,256,25.25
		s98.452,6.28,134.865,17.688c37.501,11.747,47.992,24.302,48.993,27.444C438.857,73.524,428.37,86.079,390.869,97.824z"></path></g></svg>