<?xml version="1.0" encoding="iso-8859-1"?>
<!DOCTYPE svg PUBLIC "-//W3C//DTD SVG 1.1//EN" "http://www.w3.org/Graphics/SVG/1.1/DTD/svg11.dtd">
<svg 
 version="1.1" xmlns="http://www.w3.org/2000/svg" xmlns:xlink="http://www.w3.org/1999/xlink" x="0px" y="0px" width="512px"
	 height="512px" viewBox="0 0 512 512" style="enable-background:new 0 0 512 512;" xml:space="preserve"
><g id="afcae5a789ccd549f9c6e2a2f81b591d"><g></g><g fill="#ffffff"><path style="display: inline; fill-rule: evenodd; clip-rule: evenodd;" d="M329.954,6.848c-36.242-5.811-55.472-6.607-65.146-6.287
		V0.502h-17.615v0.059c-9.675-0.32-28.903,0.477-65.146,6.287C58.99,26.573,55.935,78.027,55.935,78.027v256.938
		c0,0,18.732,61.458,68.554,105.418C174.7,484.675,256,511.5,256,511.5s81.3-26.825,131.512-71.116
		c49.82-43.96,68.554-105.418,68.554-105.418V78.027C456.065,78.027,453.01,26.573,329.954,6.848z M368.048,312.361
		c-4.06,6.869-9.687,10.37-13.273,12.012c-25.324-5.428-60.227-8.784-98.774-8.784s-73.445,3.356-98.774,8.784
		c-3.587-1.642-9.214-5.143-13.274-12.012c-0.035-0.055-0.066-0.125-0.105-0.188c25.532-9.136,66.241-15.06,112.154-15.06
		s86.622,5.924,112.153,15.06C368.114,312.236,368.083,312.307,368.048,312.361z M393.9,257.262
		c-4.818,10.702-15.29,22.241-15.29,22.241s-1.688,10.319-5.205,20.667C348.421,289.9,305.188,283.109,256,283.109
		s-92.421,6.791-117.405,17.061c-3.517-10.348-5.205-20.667-5.205-20.667s-10.473-11.539-15.29-22.241
		c-3.446-7.655-1.708-15.521-1.708-15.521s3.904-0.95,7.245,3.134c3.087,3.775,5.635,12.602,5.635,12.602s4.485-5.986,10.69-3.502
		c6.205,2.489,6.307,10.32,6.307,10.32s8.972-2.364,16.029-7.722c5.99-4.54,10.245-12.21,10.245-12.21s-4.666-4.103-3.771-8.249
		c0.91-4.24,7.377-8.53,7.377-8.53s-3.935-5.681-4.048-13.512c-0.145-9.995,3.536-22.675,3.536-22.675s9.977,10.41,14.981,19.26
		c3.454,6.1,2.532,11.68,2.532,11.68s7.092-1.942,11.387,0.559c4.704,2.735,6.643,9.933,6.643,9.933s6.408,0.941,11.113-0.191
		c3.993-0.954,6.4-4.005,6.4-4.005s-0.508-10.097,3.173-15.317c3.528-4.998,11.254-5.135,11.254-5.135s-2.228-10.437-0.938-22.703
		c1.524-14.547,6.604-31.319,6.604-31.319l7.213-22.55l7.213,22.55c0,0,5.08,16.771,6.608,31.319
		c1.285,12.266-0.942,22.703-0.942,22.703s7.726,0.137,11.254,5.135c3.681,5.22,3.173,15.317,3.173,15.317s2.407,3.052,6.4,4.005
		c4.709,1.133,11.113,0.191,11.113,0.191s1.938-7.198,6.643-9.933c4.295-2.5,11.387-0.559,11.387-0.559s-0.922-5.58,2.528-11.68
		c5.01-8.851,14.985-19.26,14.985-19.26s3.681,12.68,3.536,22.675c-0.109,7.831-4.048,13.512-4.048,13.512s6.467,4.291,7.377,8.53
		c0.891,4.146-3.771,8.249-3.771,8.249s4.255,7.67,10.245,12.21c7.058,5.357,16.029,7.722,16.029,7.722s0.098-7.831,6.307-10.32
		c6.205-2.484,10.69,3.502,10.69,3.502s2.548-8.827,5.635-12.602c3.341-4.083,7.245-3.134,7.245-3.134
		S397.347,249.606,393.9,257.262z"></path></g></g></svg>